<svg xmlns="http://www.w3.org/2000/svg" viewBox="0 0 512 512">
	<defs>
		<style>
			#kitty #head {
				fill: white;
			}

      .folder-top {
        fill: hsl(200, 100%, 50%);
      }
      .folder-body {
        fill: hsl(200, 100%, 50%);
      }
		</style>
	</defs>

	<rect width="512" height="512" fill="red" style="display:none" />

  <g id="folder-full" transform="translate(15, -35) scale(10, 10)">
    <g class="folder-top" transform="translate(0 1.5)">
      <path d="M 43.5,11.5 H 21 L 16.5,7 h -12 c -3,0 -3,0 -3,3 v 8 h 45 v -3.5 c 0,0 0,-3 -3,-3 z" />
    </g>

    <g class="folder-body">
      <path id="folder-cover" d="M 3,16.75 C 1.5,16.75 1.5,18 1.5,18 v 25.75 c 0,2.25 0,2 3,2 h 39 c 3,0 3,0.25 3,-2 V 18 c 0,0 0,-1.25 -1.5,-1.25 z" />
    </g>
  </g>

	<g id="kitty" transform="translate(256, 256) scale(0.75) translate(0 -20) translate(0, 20) translate(-256, -256)">
		<path id="head" d="M 204.6, 186.1 l -42.4 -69.5 c -1.6 -4 -5.4 -6.8 -9.7 -7.2 -4.3 -.4 -8.5, 1.6 -10.8, 5.3 -112.2, 238.9 -53.9, 304.5, 114.4, 303.7, 252.7, 1, 166.6 -206.3, 114.4 -310.7 -5.1-7.9 -16.9-6.9 -20.6, 1.8 l -42.4, 76.5 h -102.9 Z" />
	</g>
</svg>